HIERARCHY
ROOT Hips
{
	OFFSET -0.001795 -0.223333 0.028219
	CHANNELS 6 Xposition Yposition Zposition Zrotation Yrotation Xrotation 
	JOINT LeftUpLeg
	{
		OFFSET 0.069520 -0.091406 -0.006815
		CHANNELS 3 Zrotation Yrotation Xrotation
		JOINT LeftLeg
		{
			OFFSET 0.034277 -0.375199 -0.004496
			CHANNELS 3 Zrotation Yrotation Xrotation
			JOINT LeftFoot
			{
				OFFSET -0.013596 -0.397961 -0.043693
				CHANNELS 3 Zrotation Yrotation Xrotation
				JOINT LeftToe
				{
					OFFSET 0.026358 -0.055791 0.119288
					CHANNELS 3 Zrotation Yrotation Xrotation
					End Site
					{
						OFFSET 0.000000 0.000000 0.000000
					}
				}
			}
		}
	}
	JOINT RightUpLeg
	{
		OFFSET -0.067670 -0.090522 -0.004320
		CHANNELS 3 Zrotation Yrotation Xrotation
		JOINT RightLeg
		{
			OFFSET -0.038290 -0.382569 -0.008850
			CHANNELS 3 Zrotation Yrotation Xrotation
			JOINT RightFoot
			{
				OFFSET 0.015774 -0.398415 -0.042312
				CHANNELS 3 Zrotation Yrotation Xrotation
				JOINT RightToe
				{
					OFFSET -0.025372 -0.048144 0.123348
					CHANNELS 3 Zrotation Yrotation Xrotation
					End Site
					{
						OFFSET 0.000000 0.000000 0.000000
					}
				}
			}
		}
	}
	JOINT Spine
	{
		OFFSET -0.002533 0.108963 -0.026696
		CHANNELS 3 Zrotation Yrotation Xrotation
		JOINT Spine1
		{
			OFFSET 0.005487 0.135180 0.001092
			CHANNELS 3 Zrotation Yrotation Xrotation
			JOINT Spine2
			{
				OFFSET 0.001457 0.052922 0.025425
				CHANNELS 3 Zrotation Yrotation Xrotation
				JOINT Neck
				{
					OFFSET -0.002778 0.213870 -0.042857
					CHANNELS 3 Zrotation Yrotation Xrotation
					JOINT Head
					{
						OFFSET 0.005152 0.064970 0.051349
						CHANNELS 3 Zrotation Yrotation Xrotation
						End Site
						{
							OFFSET 0.000000 0.000000 0.000000
						}
					}
				}
				JOINT LeftShoulder
				{
					OFFSET 0.078845 0.121749 -0.034090
					CHANNELS 3 Zrotation Yrotation Xrotation
					JOINT LeftArm
					{
						OFFSET 0.090977 0.030469 -0.008868
						CHANNELS 3 Zrotation Yrotation Xrotation
						JOINT LeftForeArm
						{
							OFFSET 0.259612 -0.012772 -0.027456
							CHANNELS 3 Zrotation Yrotation Xrotation
							JOINT LeftHand
							{
								OFFSET 0.249234 0.008986 -0.001171
								CHANNELS 3 Zrotation Yrotation Xrotation
								End Site
								{
									OFFSET 0.000000 0.000000 0.000000
								}
							}
						}
					}
				}
				JOINT RightShoulder
				{
					OFFSET -0.081759 0.118833 -0.038615
					CHANNELS 3 Zrotation Yrotation Xrotation
					JOINT RightArm
					{
						OFFSET -0.096012 0.032551 -0.009143
						CHANNELS 3 Zrotation Yrotation Xrotation
						JOINT RightForeArm
						{
							OFFSET -0.253742 -0.013329 -0.021401
							CHANNELS 3 Zrotation Yrotation Xrotation
							JOINT RightHand
							{
								OFFSET -0.255298 0.007772 -0.005559
								CHANNELS 3 Zrotation Yrotation Xrotation
								End Site
								{
									OFFSET 0.000000 0.000000 0.000000
								}
							}
						}
					}
				}
			}
		}
	}
}
MOTION
Frames: 13
Frame Time: 0.016667
-0.121898 1.562045 0.132095 -6.296937 2.237329 -18.538651 -0.196385 -0.842635 -15.620030 -16.648272 3.532489 18.272446 -0.421624 -0.062168 -0.044324 0.548567 0.338759 0.306686 11.848676 9.686393 8.116293 25.149817 -7.674862 47.029305 -0.335757 0.249593 0.175524 0.125016 0.000061 -0.014687 2.419848 4.389591 11.900627 -5.707050 6.949331 12.287120 -9.131953 7.471502 11.475921 -5.680685 -1.111133 10.893270 17.812616 -7.712327 -17.820562 6.519305 4.803987 0.275100 -0.151435 9.524633 -0.458687 27.471832 -15.247224 -3.120506 0.434999 -0.286010 0.748011 -1.653504 1.503774 2.651853 -3.934599 -4.403604 0.036218 3.880179 -2.273012 0.014895 -0.253817 0.264878 -0.129494 
-0.122583 1.563203 0.129728 -6.370316 2.379146 -18.180025 -0.111760 -1.011142 -15.512547 -16.722134 3.250673 17.135126 -0.440092 -0.007641 -0.028148 0.517641 0.298907 0.276611 12.050435 9.344055 7.730395 24.413095 -7.506826 47.093266 -0.309598 0.220128 0.180614 0.122768 0.053540 -0.014729 2.093888 4.088501 12.456456 -5.736309 6.593401 12.289157 -9.027953 7.131604 11.195807 -5.441470 -0.945093 9.397714 17.450848 -7.749553 -17.205772 6.627807 5.445283 -0.556064 -2.006414 7.137973 -0.851998 28.450481 -15.871873 -3.580874 0.388686 -0.293490 0.725561 -1.326600 1.048519 2.015600 -2.466781 -3.484174 -0.133951 3.995342 -2.012242 0.005046 -0.274097 0.260361 -0.156308 
-0.122330 1.566770 0.126004 -6.862566 2.167047 -17.945341 0.107629 -1.063304 -14.915633 -16.067343 2.740838 15.318274 -0.466176 0.045496 -0.023798 0.488294 0.249888 0.274261 12.590283 8.930395 7.613179 23.621336 -7.181594 46.643768 -0.293799 0.218007 0.181075 0.108841 0.084267 -0.009947 2.462157 3.703882 13.238460 -5.646223 6.314587 12.249623 -9.064575 6.913510 10.781544 -5.288212 -1.016388 8.728507 17.213570 -7.698281 -17.416704 6.649496 5.805310 -1.218261 -4.689087 4.937608 -1.356343 29.498144 -17.218878 -4.320535 0.346171 -0.329679 0.732530 -1.481122 0.950674 1.551869 0.289414 -2.788719 -0.583706 3.724111 -2.041247 0.041688 -0.290575 0.286985 -0.182382 
-0.121876 1.570924 0.121349 -7.277102 2.349147 -17.486326 -0.299998 -1.329397 -14.468218 -14.614100 2.097471 13.347012 -0.474041 0.108227 -0.019255 0.420475 0.162894 0.228699 12.924494 8.456316 7.200593 22.933365 -6.960938 46.031380 -0.267872 0.182777 0.172078 0.069147 0.126971 0.012523 2.433203 3.421620 14.182847 -5.411819 5.896744 11.808802 -8.784131 6.479448 9.729136 -4.818884 -1.033386 8.062301 16.318027 -7.672631 -15.897619 6.520482 5.928554 -1.331696 -7.374492 3.514424 -1.666415 29.705997 -19.821272 -5.242815 0.285555 -0.327840 0.716255 -1.659985 1.161210 1.459286 3.382258 -2.585826 -1.051680 3.455165 -1.741092 0.094011 -0.300304 0.291817 -0.200811 
-0.121052 1.575325 0.116321 -7.176392 2.172981 -16.553852 -1.237175 -1.552315 -14.162011 -12.741652 1.438776 10.710757 -0.459499 0.110266 -0.010060 0.422467 0.170392 0.241272 12.404871 8.134282 6.572304 22.403255 -6.671595 44.991665 -0.269803 0.159104 0.171338 0.069817 0.126816 0.029661 1.367676 3.754752 14.370745 -4.876679 5.635292 11.436094 -7.680348 6.152471 9.166446 -3.867156 -1.165315 7.536928 14.857112 -6.968556 -15.042185 6.164510 6.532460 -1.823331 -10.642793 1.309045 -2.002665 29.405722 -22.136473 -6.036434 0.266510 -0.310068 0.691340 -2.195982 0.912099 0.883817 6.705359 -1.676299 -1.420694 3.741755 -1.833966 0.063025 -0.299391 0.265327 -0.188253 
-0.118246 1.580098 0.109927 -7.711839 2.075364 -15.587891 -2.088654 -1.835086 -14.202435 -10.109858 0.801686 8.486234 -0.441670 0.088577 -0.027452 0.479225 0.227037 0.306912 12.040537 7.666810 5.746990 22.462009 -6.724844 43.824299 -0.295205 0.133230 0.165084 0.084466 0.069559 0.081053 0.806512 3.957070 14.487797 -3.805872 5.297740 11.191707 -6.132635 5.824849 8.921922 -2.679579 -1.973135 7.175693 12.479910 -6.068850 -15.259023 4.406346 7.096613 -2.811057 -13.778641 -1.106776 -2.268214 28.906534 -24.795628 -6.924478 0.263654 -0.253814 0.673941 -3.153684 0.288356 0.224831 10.035183 -0.926798 -1.743588 4.105676 -1.873696 0.025924 -0.303234 0.214187 -0.132173 
-0.114862 1.584567 0.101931 -8.740442 1.905554 -14.505961 -2.350240 -1.884379 -14.665668 -7.717851 0.374252 6.604163 -0.439979 0.081357 -0.036211 0.511341 0.261599 0.356569 12.131114 7.159822 4.751263 22.863031 -6.897527 42.459049 -0.318512 0.120248 0.161797 0.093616 0.037566 0.114388 1.206626 3.983779 14.601110 -2.751334 5.130107 10.879861 -5.038743 5.701476 8.615458 -1.284028 -2.591045 7.060310 10.643373 -5.052985 -15.613962 2.561202 7.182442 -3.885128 -16.511860 -3.883932 -2.304093 27.073845 -27.518414 -7.518256 0.250585 -0.238313 0.671737 -4.112470 -0.486091 -0.340489 13.856544 -0.541222 -2.200242 4.130472 -1.385617 0.026595 -0.312973 0.194391 -0.104998 
-0.111653 1.588717 0.092943 -9.580932 1.938409 -13.071809 -2.774422 -1.995113 -15.587181 -5.479844 0.084802 4.950943 -0.450784 0.073900 -0.059684 0.516137 0.270156 0.368477 12.051138 6.629433 3.344998 23.300184 -7.073602 40.853096 -0.325742 0.112034 0.151600 0.096996 0.010127 0.127193 2.367603 3.662552 14.544272 -2.300927 5.032442 10.374562 -4.940774 5.629103 8.166381 -0.456285 -2.840114 7.537911 9.931774 -4.497946 -15.633410 1.278644 6.299837 -4.638807 -18.993738 -6.416201 -2.319404 24.388172 -28.466503 -7.368638 0.246393 -0.226625 0.678114 -4.338342 -1.046778 -0.519125 18.322056 -0.927267 -2.912134 3.519533 0.244504 0.066412 -0.319135 0.188831 -0.095946 
-0.107687 1.591367 0.083690 -10.365875 1.587422 -11.407109 -3.041477 -2.004628 -16.891371 -3.434665 -0.069550 3.456881 -0.468509 0.084028 -0.069495 0.529481 0.272144 0.419691 11.766008 6.263106 1.633495 24.164347 -7.413058 39.434261 -0.344595 0.114909 0.143007 0.096394 -0.017786 0.148005 3.174097 3.375661 14.198696 -1.732412 4.794790 9.791350 -4.461377 5.439648 7.734949 0.695003 -3.263393 7.727342 8.347216 -3.514747 -16.261333 -0.609418 5.460496 -5.295821 -21.369019 -7.883554 -2.388442 21.405855 -29.465984 -7.074156 0.232986 -0.244612 0.700580 -4.472658 -1.269404 -0.997553 22.855288 -0.506443 -3.657374 2.081141 1.298265 0.078064 -0.327344 0.196078 -0.094661 
-0.103623 1.594249 0.075134 -10.676368 -0.541627 -10.126528 -2.962898 -1.659159 -17.407568 -1.695443 -0.096874 1.489791 -0.472091 0.054948 -0.101665 0.572698 0.324096 0.480299 11.640573 6.414000 0.549522 24.135914 -7.255526 38.962532 -0.374231 0.121832 0.122955 0.116367 -0.078071 0.170036 3.389520 3.627431 13.544667 -1.203354 4.916288 9.550274 -3.726349 5.574574 7.882900 1.832137 -2.895388 8.249529 7.252992 -1.913786 -17.259890 -3.327069 4.371879 -6.073265 -23.620604 -8.793082 -2.706412 19.274776 -29.980612 -6.865378 0.242340 -0.222372 0.712701 -3.192371 -1.151574 -1.539329 25.508799 0.351278 -3.907566 1.875103 2.776520 0.017741 -0.325225 0.183665 -0.065521 
-0.100158 1.596338 0.067743 -10.743060 -4.249978 -9.004866 -2.176583 -1.023096 -17.446777 -0.428128 -0.050101 -0.618364 -0.486922 0.037035 -0.126380 0.618947 0.360951 0.545748 11.812025 6.992308 -0.135721 22.769899 -6.445992 39.025208 -0.410490 0.136140 0.103693 0.129657 -0.135156 0.191831 3.887447 3.945993 13.276469 -1.011871 5.296007 9.298170 -3.598031 5.982064 7.785995 1.855152 -1.910181 8.998516 6.085312 -0.431414 -18.625816 -5.510310 3.480265 -6.606335 -26.439394 -9.226962 -3.130168 17.302073 -29.293293 -6.484406 0.265439 -0.214550 0.751546 -1.920061 -1.061195 -1.949684 28.230600 1.015548 -4.318895 2.411154 6.408478 -0.120510 -0.323313 0.180882 -0.048902 
-0.097533 1.597633 0.059465 -10.768269 -7.751304 -8.021132 -1.151258 -0.476258 -17.733234 0.198507 0.003402 -1.863529 -0.481496 0.011635 -0.135894 0.662701 0.404263 0.602277 11.815592 7.464859 -0.753441 21.749920 -5.827280 39.087379 -0.442300 0.152349 0.090666 0.145218 -0.180264 0.205419 3.474221 4.371689 13.129768 -0.515508 5.450000 9.112489 -2.694355 6.131138 7.655249 1.867284 -0.771943 9.392219 5.225754 0.983774 -19.677412 -7.801723 2.592673 -6.890826 -29.759911 -9.232000 -3.716399 16.027205 -28.753725 -6.338119 0.291514 -0.202986 0.771694 0.135106 -0.453572 -2.622035 29.660341 2.229525 -4.469664 2.748702 9.116249 -0.250170 -0.311327 0.171817 -0.030197 
-0.095542 1.597074 0.050804 -10.682375 -11.093835 -7.073360 0.232117 -0.034097 -18.682926 0.234990 0.017817 -1.927449 -0.497061 0.011271 -0.154227 0.695764 0.438507 0.622805 12.035393 7.999822 -1.598497 20.276812 -5.091345 39.508476 -0.456617 0.143508 0.079380 0.168213 -0.197154 0.221194 2.834883 4.844185 12.949556 -0.078207 5.593792 9.071894 -1.730728 6.275786 7.728148 1.451176 0.621287 8.959104 4.835809 1.975133 -20.670458 -9.961541 1.764418 -7.482730 -32.615372 -9.744394 -4.036368 13.958906 -28.009691 -5.955474 0.294939 -0.177878 0.779480 3.292212 0.021180 -3.832868 29.940405 3.884016 -4.385713 3.431431 11.219625 -0.329157 -0.321903 0.155525 -0.019049 
